<?xml version="1.0" encoding="UTF-8"?>
<svg version="1.1" xmlns="http://www.w3.org/2000/svg" width="319" height="359">
<path d="M0 0 C1.52244565 -0.00571464 3.04488703 -0.01268309 4.56732178 -0.02079773 C8.67304828 -0.0386291 12.77855987 -0.03757912 16.88431334 -0.03185534 C20.32803746 -0.02874716 23.77172127 -0.03487434 27.21543962 -0.04089409 C35.35085506 -0.05490649 43.48616543 -0.05340708 51.62158203 -0.04199219 C59.97460209 -0.03052988 68.32730035 -0.0445623 76.680278 -0.07138866 C83.88580857 -0.09365132 91.09123892 -0.10015894 98.29680139 -0.09431225 C102.58521089 -0.0909647 106.87341454 -0.09320859 111.16179466 -0.11056328 C115.20119082 -0.12619866 119.24011656 -0.12189637 123.27949524 -0.10325813 C124.74827303 -0.09961676 126.21708699 -0.1025478 127.68583107 -0.11314392 C146.35882523 -0.23739954 162.65645339 4.18985416 176.56567383 17.24389648 C189.5489465 31.07771111 194.07035447 47.02052772 193.98120117 65.62695312 C193.98527754 67.00987662 193.99062534 68.39279686 193.99713135 69.77571106 C194.01068312 73.49471162 194.00555753 77.21345952 193.99599409 80.93246388 C193.98833542 84.84572423 193.99546003 88.75896465 194.00015259 92.67222595 C194.00559158 99.23953081 193.99846687 105.80673405 193.98413086 112.37402344 C193.96780108 119.94152974 193.97310267 127.50879355 193.98961008 135.076294 C194.00326999 141.60236485 194.00512289 148.12836315 193.99729407 154.65444368 C193.99264308 158.53966423 193.99192124 162.42477118 194.00190353 166.30998421 C194.01063718 169.96356497 194.00443612 173.61683615 193.98722076 177.27038383 C193.98143098 179.23266054 193.99021602 181.19496377 193.99960327 183.15722656 C193.88813455 198.87172806 188.8486816 213.27937145 178.21801758 225.02905273 C177.35176758 225.81280273 176.48551758 226.59655273 175.59301758 227.40405273 C174.80217773 228.20069336 174.80217773 228.20069336 173.99536133 229.01342773 C155.6235147 246.64415953 130.51558173 245.57324959 106.8488121 245.44865227 C103.39148278 245.43104653 99.93420099 245.42089595 96.47683716 245.41273499 C86.65695721 245.38846483 76.83714204 245.35272046 67.01733398 245.30810547 C60.98412619 245.28121015 54.95095456 245.26424387 48.91769791 245.25323677 C46.63332908 245.24706563 44.34896698 245.23710955 42.06463242 245.22315788 C17.30550426 244.51023449 17.30550426 244.51023449 -4.42260742 255.13061523 C-5.78314213 256.52417263 -7.10032694 257.95985457 -8.40698242 259.40405273 C-9.06698242 259.40405273 -9.72698242 259.40405273 -10.40698242 259.40405273 C-10.74729492 260.27030273 -10.74729492 260.27030273 -11.09448242 261.15405273 C-12.74785172 263.9884001 -14.83662187 265.37167462 -17.40698242 267.40405273 C-19.09430519 269.38665699 -20.760643 271.38728694 -22.40698242 273.40405273 C-36.82039642 288.25277118 -36.82039642 288.25277118 -45.28588867 289.38452148 C-51.74800976 289.44402536 -55.96735985 287.45884136 -60.86401367 283.32983398 C-64.76445404 278.46168943 -65.80203466 273.3265096 -66.08441162 267.22314453 C-66.11746171 266.53685061 -66.15051179 265.8505567 -66.1845634 265.143466 C-66.57198733 256.20054873 -66.56312371 247.24806375 -66.56811523 238.29858398 C-66.57275625 236.33206085 -66.57778258 234.36553859 -66.5831604 232.39901733 C-66.59615497 227.1056712 -66.60270266 221.81233767 -66.60717106 216.51897812 C-66.6101203 213.20207302 -66.6142282 209.88517123 -66.61867523 206.56826782 C-66.63231031 196.16080971 -66.6419988 185.75335932 -66.64587712 175.34589291 C-66.65036108 163.38461654 -66.66794155 151.42345426 -66.69687772 139.46221256 C-66.71855425 130.17593946 -66.72858443 120.88969834 -66.72991824 111.60340023 C-66.73096113 106.07431053 -66.73675953 100.54532865 -66.75473785 95.01626587 C-66.77132446 89.81551142 -66.77332312 84.61494474 -66.76459885 79.41417313 C-66.76383436 77.51805744 -66.76809238 75.62193118 -66.7780571 73.72584152 C-66.87975032 53.15180036 -64.69146735 32.86189666 -49.40698242 17.40405273 C-34.58306995 4.49427531 -19.38160018 -0.06627473 0 0 Z M60.5769043 56.48706055 C58.38649622 59.70770978 57.04879392 62.92527837 55.78833008 66.57592773 C55.28189937 67.97699821 54.77538631 69.37803893 54.26879883 70.77905273 C53.49318864 72.96073131 52.72163437 75.14377708 51.95288086 77.32788086 C47.49097333 89.93898657 42.66294409 102.04559101 30.22192383 108.66577148 C25.19718889 110.86090242 20.02922006 112.60402359 14.84692383 114.38452148 C13.82026611 114.73780518 12.7936084 115.09108887 11.73583984 115.45507812 C9.66522134 116.16265606 7.59152351 116.86129555 5.51464844 117.55029297 C4.55051025 117.87586182 3.58637207 118.20143066 2.59301758 118.53686523 C1.72676758 118.8244873 0.86051758 119.11210937 -0.03198242 119.40844727 C-2.55484009 120.46603501 -4.40195231 121.54100727 -6.40698242 123.40405273 C-6.7409603 126.52992148 -6.7409603 126.52992148 -6.40698242 129.40405273 C2.27168302 134.07737059 11.29413748 137.29879001 20.60473633 140.47827148 C31.04408762 144.19397279 39.79928045 148.32768871 45.22485352 158.3972168 C48.42133653 165.4221784 50.92961569 172.70647419 53.49389648 179.97973633 C54.24957842 182.11154984 55.01851764 184.23824693 55.78833008 186.36499023 C56.01134796 187.01293549 56.23436584 187.66088074 56.46414185 188.32846069 C57.87275597 192.21165155 59.38007057 194.78506931 62.59301758 197.40405273 C65.38222757 198.38027623 66.8435557 198.67844539 69.63085938 197.65795898 C72.0149204 196.13443809 72.49558892 195.08885965 73.48754883 192.46655273 C73.79966309 191.6625 74.11177734 190.85844727 74.43334961 190.0300293 C74.91457275 188.7301709 74.91457275 188.7301709 75.40551758 187.40405273 C75.74953613 186.51427734 76.09355469 185.62450195 76.44799805 184.70776367 C78.15814903 180.27252599 79.81084666 175.8167321 81.45629883 171.35717773 C85.86632689 159.50182078 89.81403388 150.42686197 101.59301758 144.40405273 C108.82090813 141.21832588 116.25782615 138.47521932 123.76489258 136.02514648 C125.00754883 135.61393555 126.25020508 135.20272461 127.53051758 134.77905273 C128.63266602 134.43616211 129.73481445 134.09327148 130.87036133 133.73999023 C134.15318858 132.12919121 135.15274581 130.728551 136.59301758 127.40405273 C136.24323934 124.69570221 136.24323934 124.69570221 134.59301758 122.40405273 C131.20691868 120.10943549 127.8516763 118.65735355 123.98754883 117.35327148 C122.92084961 116.98395508 121.85415039 116.61463867 120.75512695 116.23413086 C118.54312568 115.47959981 116.32960409 114.72950944 114.11450195 113.98413086 C101.92202743 109.7442253 91.3372917 104.34094119 85.08129883 92.55639648 C82.5688558 86.89135372 80.47182976 81.08248777 78.32739258 75.27124023 C77.92770264 74.19237549 77.5280127 73.11351074 77.11621094 72.00195312 C76.31787884 69.83555768 75.52938806 67.66550666 74.75146484 65.49169922 C74.38593506 64.48953369 74.02040527 63.48736816 73.64379883 62.45483398 C73.32064697 61.55418213 72.99749512 60.65353027 72.66455078 59.72558594 C71.56786551 57.34955946 70.64655953 56.00891624 68.59301758 54.40405273 C64.80137923 53.75866748 63.30398045 53.66950015 60.5769043 56.48706055 Z " fill="#5C35FE" transform="translate(101.406982421875,32.595947265625)"/>
<path d="M0 0 C2 1 2 1 2 1 Z " fill="#0000FF" transform="translate(75,34)"/>
<path d="" fill="#7F7FFF" transform="translate(0,0)"/>
<path d="" fill="#0000FF" transform="translate(0,0)"/>
<path d="" fill="#0000FF" transform="translate(0,0)"/>
<path d="" fill="#0000FF" transform="translate(0,0)"/>
</svg>
