<?xml version="1.0" encoding="UTF-8"?>
<svg version="1.1" xmlns="http://www.w3.org/2000/svg" width="869" height="291">
<path d="M0 0 C0.68269656 -0.00453111 1.36539311 -0.00906223 2.06877744 -0.01373065 C4.34388498 -0.02633522 6.61875191 -0.02475684 8.89389038 -0.02310181 C10.53045965 -0.02908971 12.16702611 -0.03589586 13.80358887 -0.04345703 C18.24192943 -0.06110209 22.68019283 -0.06581191 27.11856508 -0.0670886 C29.89567519 -0.06851213 32.67276581 -0.07278564 35.44987106 -0.07808304 C45.15062449 -0.09658159 54.85132302 -0.10475427 64.55209351 -0.10317993 C73.5736474 -0.10198005 82.59496147 -0.12305267 91.61645472 -0.15466726 C99.37721996 -0.18088786 107.13790718 -0.19154474 114.89871633 -0.19026911 C119.52689954 -0.18976098 124.15486975 -0.19536084 128.78300858 -0.21662521 C133.14157805 -0.23610416 137.49973356 -0.23606666 141.85831833 -0.22159195 C143.44972087 -0.21951435 145.04114997 -0.22414158 146.63250732 -0.23631287 C163.85727097 -0.35942162 177.30398155 4.56881019 190.14144897 16.32992554 C203.09067153 29.96647413 207.45752462 46.11451474 207.36947632 64.49032593 C207.37355269 65.87324943 207.37890048 67.25616966 207.38540649 68.63908386 C207.39895827 72.35808442 207.39383268 76.07683232 207.38426924 79.79583669 C207.37661056 83.70909703 207.38373518 87.62233745 207.38842773 91.53559875 C207.39386673 98.10290361 207.38674202 104.67010685 207.37240601 111.23739624 C207.35607623 118.80490254 207.36137782 126.37216635 207.37788522 133.93966681 C207.39154513 140.46573765 207.39339804 146.99173595 207.38556921 153.51781648 C207.38091822 157.40303704 207.38019639 161.28814398 207.39017868 165.17335701 C207.39891233 168.82693777 207.39271126 172.48020895 207.37549591 176.13375664 C207.36970613 178.09603335 207.37849116 180.05833657 207.38787842 182.02059937 C207.2764097 197.73510087 202.23695674 212.14274425 191.60629272 223.89242554 C190.74004272 224.67617554 189.87379272 225.45992554 188.98129272 226.26742554 C188.19045288 227.06406616 188.19045288 227.06406616 187.38363647 227.87680054 C169.01178985 245.50753233 143.90385687 244.43662239 120.23708725 244.31202507 C116.77975793 244.29441933 113.32247613 244.28426875 109.8651123 244.27610779 C100.04523235 244.25183763 90.22541718 244.21609326 80.40560913 244.17147827 C74.37240134 244.14458295 68.33922971 244.12761667 62.30597305 244.11660957 C60.02160422 244.11043844 57.73724212 244.10048235 55.45290756 244.08653069 C30.69377941 243.37360729 30.69377941 243.37360729 8.96566772 253.99398804 C7.60513302 255.38754543 6.28794821 256.82322737 4.98129272 258.26742554 C4.32129272 258.26742554 3.66129272 258.26742554 2.98129272 258.26742554 C2.64098022 259.13367554 2.64098022 259.13367554 2.29379272 260.01742554 C0.64042343 262.8517729 -1.44834672 264.23504742 -4.01870728 266.26742554 C-5.70603005 268.25002979 -7.37236785 270.25065974 -9.01870728 272.26742554 C-23.43212127 287.11614399 -23.43212127 287.11614399 -31.89761353 288.24789429 C-38.35973461 288.30739816 -42.57908471 286.32221416 -47.47573853 282.19320679 C-51.37617889 277.32506223 -52.41375951 272.1898824 -52.69613647 266.08651733 C-52.72918656 265.40022342 -52.76223665 264.7139295 -52.79628825 264.0068388 C-53.18371218 255.06392153 -53.17484857 246.11143655 -53.17984009 237.16195679 C-53.1844811 235.19543365 -53.18950743 233.22891139 -53.19488525 231.26239014 C-53.20787982 225.96904401 -53.21442751 220.67571047 -53.21889591 215.38235092 C-53.22184515 212.06544582 -53.22595305 208.74854403 -53.23040009 205.43164062 C-53.24403517 195.02418251 -53.25372366 184.61673213 -53.25760198 174.20926571 C-53.26208593 162.24798934 -53.27966641 150.28682706 -53.30860257 138.32558537 C-53.33027911 129.03931226 -53.34030928 119.75307115 -53.3416431 110.46677303 C-53.34268599 104.93768333 -53.34848438 99.40870146 -53.36646271 93.87963867 C-53.38304932 88.67888423 -53.38504797 83.47831755 -53.3763237 78.27754593 C-53.37555921 76.38143024 -53.37981723 74.48530398 -53.38978195 72.58921432 C-53.49147517 52.01517316 -51.3031922 31.72526946 -36.01870728 16.26742554 C-29.01324885 10.16654567 -21.70653763 5.55506955 -13.01870728 2.26742554 C-12.12045542 1.92288015 -11.22220356 1.57833477 -10.29673195 1.22334862 C-6.70625344 0.17630913 -3.73673859 0.01028466 0 0 Z M73.96517944 55.35043335 C71.77477137 58.57108258 70.43706907 61.78865118 69.17660522 65.43930054 C68.67017451 66.84037102 68.16366145 68.24141173 67.65707397 69.64242554 C66.88146378 71.82410411 66.10990951 74.00714988 65.34115601 76.19125366 C60.87924848 88.80235938 56.05121924 100.90896382 43.61019897 107.52914429 C38.58546404 109.72427523 33.4174952 111.46739639 28.23519897 113.24789429 C27.20854126 113.60117798 26.18188354 113.95446167 25.12411499 114.31845093 C23.05349649 115.02602887 20.97979866 115.72466835 18.90292358 116.41366577 C17.9387854 116.73923462 16.97464722 117.06480347 15.98129272 117.40023804 C15.11504272 117.68786011 14.24879272 117.97548218 13.35629272 118.27182007 C10.83343506 119.32940781 8.98632283 120.40438007 6.98129272 122.26742554 C6.64731485 125.39329429 6.64731485 125.39329429 6.98129272 128.26742554 C15.65995817 132.94074339 24.68241263 136.16216281 33.99301147 139.34164429 C44.43236277 143.05734559 53.1875556 147.19106151 58.61312866 157.2605896 C61.80961168 164.2855512 64.31789084 171.56984699 66.88217163 178.84310913 C67.63785357 180.97492264 68.40679278 183.10161973 69.17660522 185.22836304 C69.39962311 185.87630829 69.62264099 186.52425354 69.85241699 187.1918335 C71.26103111 191.07502435 72.76834572 193.64844211 75.98129272 196.26742554 C78.77050271 197.24364903 80.23183084 197.54181819 83.01913452 196.52133179 C85.40319555 194.99781089 85.88386407 193.95223245 86.87582397 191.32992554 C87.18793823 190.5258728 87.50005249 189.72182007 87.82162476 188.8934021 C88.3028479 187.5935437 88.3028479 187.5935437 88.79379272 186.26742554 C89.13781128 185.37765015 89.48182983 184.48787476 89.83627319 183.57113647 C91.54642417 179.13589879 93.1991218 174.6801049 94.84457397 170.22055054 C99.25460204 158.36519358 103.20230903 149.29023478 114.98129272 143.26742554 C122.20918327 140.08169868 129.6461013 137.33859212 137.15316772 134.88851929 C138.39582397 134.47730835 139.63848022 134.06609741 140.91879272 133.64242554 C142.02094116 133.29953491 143.1230896 132.95664429 144.25863647 132.60336304 C147.54146373 130.99256401 148.54102096 129.5919238 149.98129272 126.26742554 C149.63151449 123.55907501 149.63151449 123.55907501 147.98129272 121.26742554 C144.59519383 118.9728083 141.23995145 117.52072635 137.37582397 116.21664429 C136.30912476 115.84732788 135.24242554 115.47801147 134.1434021 115.09750366 C131.93140083 114.34297262 129.71787924 113.59288224 127.5027771 112.84750366 C115.31030258 108.60759811 104.72556684 103.20431399 98.46957397 91.41976929 C95.95713095 85.75472652 93.86010491 79.94586058 91.71566772 74.13461304 C91.31597778 73.05574829 90.91628784 71.97688354 90.50448608 70.86532593 C89.70615399 68.69893049 88.91766321 66.52887947 88.13973999 64.35507202 C87.77421021 63.35290649 87.40868042 62.35074097 87.03207397 61.31820679 C86.70892212 60.41755493 86.38577026 59.51690308 86.05282593 58.58895874 C84.95614066 56.21293226 84.03483468 54.87228904 81.98129272 53.26742554 C78.18965438 52.62204029 76.6922556 52.53287295 73.96517944 55.35043335 Z " fill="#5C35FE" transform="translate(59.018707275390625,-0.267425537109375)"/>
<path d="M0 0 C6.74030741 -0.02558531 13.48060205 -0.04296455 20.22094727 -0.05493164 C22.50871244 -0.05992641 24.79647449 -0.06672451 27.08422852 -0.07543945 C69.45818146 -0.23268835 69.45818146 -0.23268835 80.80859375 10.75 C87.42431441 17.79209767 90.34578443 25.85735628 90.21875 35.49609375 C89.36089114 45.31551387 85.12958755 52.43778896 77.78125 58.80078125 C75.85684678 60.09637728 74.26654934 60.57750725 72 61 C72 61.66 72 62.32 72 63 C72.825 63.020625 73.65 63.04125 74.5 63.0625 C80.4185087 64.64781483 84.36814 68.37937754 87.5859375 73.546875 C92.32816821 82.81204251 93.59619763 91.95899833 90.875 102.1875 C87.90058078 110.80639847 82.91962848 117.41862762 75 122 C53.0041325 132.47742085 24.68947527 127.83696992 1 127 C0.505 128.485 0.505 128.485 0 130 C-0.83788703 123.45435524 -1.14366816 117.08068387 -1.12939453 110.48583984 C-1.13114685 109.47474152 -1.13289917 108.46364319 -1.13470459 107.42190552 C-1.13908116 104.10156502 -1.13619858 100.78127847 -1.1328125 97.4609375 C-1.13348706 95.13318878 -1.13445835 92.80544013 -1.13571167 90.47769165 C-1.13718324 85.60409879 -1.13505264 80.73052431 -1.13037109 75.85693359 C-1.12469323 69.64717826 -1.12794393 63.43746635 -1.13394356 57.22771263 C-1.13758009 52.41980673 -1.13639613 47.61191089 -1.13381577 42.80400467 C-1.13315403 40.51654683 -1.13394821 38.22908805 -1.13629532 35.94163132 C-1.14592053 23.91868989 -1.05756278 11.98294759 0 0 Z M26 22 C24.88088288 25.35735137 24.88634414 27.88205386 24.90234375 31.41796875 C24.90556641 32.67158203 24.90878906 33.92519531 24.91210938 35.21679688 C24.92048828 36.52712891 24.92886719 37.83746094 24.9375 39.1875 C24.94251683 40.52278481 24.94707941 41.85807141 24.95117188 43.19335938 C24.96297305 46.46228473 24.97943703 49.73111991 25 53 C29.18736668 53.08760181 33.37449531 53.14059435 37.5625 53.1875 C38.74392578 53.21263672 39.92535156 53.23777344 41.14257812 53.26367188 C49.27558912 53.33201651 54.57031803 52.98233215 60.875 47.5 C64.20714424 43.57983031 64.2950703 40.21143704 64.20703125 35.28125 C63.89636745 31.85808658 63.00901041 29.78669187 61 27 C53.20596605 21.23241488 44.28991721 21.84317772 34.9375 21.9375 C33.6390918 21.94426758 33.6390918 21.94426758 32.31445312 21.95117188 C30.20960461 21.96280087 28.10479242 21.98072927 26 22 Z M26 73 C24.24873413 74.75126587 24.86975043 77.19783295 24.8671875 79.57421875 C24.86589844 80.71697266 24.86460937 81.85972656 24.86328125 83.03710938 C24.86714844 84.24173828 24.87101562 85.44636719 24.875 86.6875 C24.87113281 87.87279297 24.86726563 89.05808594 24.86328125 90.27929688 C24.86457031 91.42849609 24.86585938 92.57769531 24.8671875 93.76171875 C24.86831543 94.81319092 24.86944336 95.86466309 24.87060547 96.94799805 C25.00166003 100.03915471 25.42772586 102.96217338 26 106 C29.29158865 106.05905417 32.58303756 106.09394375 35.875 106.125 C37.25171875 106.15013672 37.25171875 106.15013672 38.65625 106.17578125 C46.3580863 106.23001953 55.84037123 106.22635168 62 101 C65.76281617 95.80990873 65.79658442 90.16681648 65 84 C63.72030691 80.00186284 61.90914266 77.54789339 58.25292969 75.34448242 C54.7954924 73.91547408 52.30122706 73.57796463 48.578125 73.48828125 C46.79341797 73.43510742 46.79341797 73.43510742 44.97265625 73.38085938 C43.74417969 73.35830078 42.51570313 73.33574219 41.25 73.3125 C40.00605469 73.27833984 38.76210938 73.24417969 37.48046875 73.20898438 C31.74100981 73.0534869 31.74100981 73.0534869 26 73 Z " fill="#010001" transform="translate(318,60)"/>
<path d="M0 0 C2.40365601 1.88858687 4.54641589 3.82402481 6.625 6.0625 C6.955 3.0925 7.285 0.1225 7.625 -2.9375 C15.875 -2.9375 24.125 -2.9375 32.625 -2.9375 C32.6930064 9.09405203 32.74794868 21.12547461 32.78043652 33.15717602 C32.79603569 38.74507525 32.81716813 44.3328352 32.85131836 49.9206543 C32.88411783 55.32177903 32.90189615 60.72277049 32.90963173 66.1239872 C32.91513849 68.17587695 32.92589096 70.22776011 32.94219017 72.27959251 C33.17170728 102.39335199 33.17170728 102.39335199 22.625 114.0625 C11.84376262 124.41875084 -2.95044622 126.53630816 -17.33203125 126.31640625 C-27.50003206 125.81912629 -39.50433329 124.3421966 -48.375 119.0625 C-50.375 116.0625 -50.375 116.0625 -50.25073242 114.00952148 C-50.07904541 113.24196533 -49.9073584 112.47440918 -49.73046875 111.68359375 C-49.45686523 110.42579102 -49.45686523 110.42579102 -49.17773438 109.14257812 C-48.87319336 107.83450195 -48.87319336 107.83450195 -48.5625 106.5 C-48.37107422 105.62408203 -48.17964844 104.74816406 -47.98242188 103.84570312 C-46.55210862 97.41671723 -46.55210862 97.41671723 -45.375 95.0625 C-44.715 95.0625 -44.055 95.0625 -43.375 95.0625 C-43.375 95.7225 -43.375 96.3825 -43.375 97.0625 C-40.05286077 98.10283588 -36.7184811 99.09303235 -33.375 100.0625 C-32.33279297 100.38154297 -32.33279297 100.38154297 -31.26953125 100.70703125 C-21.56795312 103.31538591 -9.45297176 103.77689459 -0.30078125 99.30078125 C2.96188599 97.2028796 4.15875722 95.69623211 5.625 92.0625 C6.21868066 87.73121239 6.49538109 83.43065736 6.625 79.0625 C5.94695312 79.53300781 5.26890625 80.00351563 4.5703125 80.48828125 C-5.85657175 87.46360686 -14.80908772 90.47074438 -27.3203125 88.62890625 C-37.43885215 86.5456775 -45.27973528 81.67886268 -51.1328125 73.09765625 C-59.50825681 59.37562328 -60.78093753 42.71462683 -57.72265625 26.9921875 C-54.42432999 15.24278495 -47.87282364 5.44529692 -37.375 -0.9375 C-25.09586121 -6.8029073 -11.86321946 -6.81036673 0 0 Z M-26.0625 20.6875 C-32.57944843 27.38058217 -33.70835645 35.44862162 -33.7644043 44.43432617 C-33.62194846 52.28272644 -31.47852798 57.95897202 -25.875 63.5625 C-19.76298778 67.22970733 -14.4013007 67.84101018 -7.375 67.0625 C-1.9019143 65.5211757 1.65469517 62.69503196 4.66015625 57.8984375 C8.50455858 50.583178 8.84507463 41.96166567 6.8671875 34.01953125 C4.79776892 27.98236917 2.48216584 23.48676192 -2.4375 19.3125 C-10.29681375 15.96811117 -18.734853 16.25682972 -26.0625 20.6875 Z " fill="#000000" transform="translate(611.375,96.9375)"/>
<path d="M0 0 C1.08628693 0.00303635 1.08628693 0.00303635 2.19451904 0.00613403 C3.3334964 0.00350555 3.3334964 0.00350555 4.4954834 0.00082397 C7.0175807 -0.00359473 9.53960847 -0.00065649 12.06170654 0.00271606 C13.80666111 0.00204303 15.55161558 0.00107301 17.29656982 -0.00018311 C20.95852549 -0.0016601 24.62045682 0.00049454 28.28240967 0.00515747 C32.98715147 0.01085476 37.69183622 0.00757577 42.39657593 0.00158501 C46.00124546 -0.00202055 49.60590136 -0.00088204 53.21057129 0.0017128 C54.94580085 0.00238208 56.68103163 0.0015536 58.41625977 -0.00076675 C60.83717142 -0.0032932 63.25798941 0.00054718 65.67889404 0.00613403 C66.40308533 0.0041098 67.12727661 0.00208557 67.87341309 0 C72.82244388 0.0212659 72.82244388 0.0212659 73.93670654 1.13552856 C74.02408299 2.98922468 74.04368807 4.84620397 74.03436279 6.70193481 C74.02952881 8.38899536 74.02952881 8.38899536 74.02459717 10.11013794 C74.01202881 11.8861438 74.01202881 11.8861438 73.99920654 13.69802856 C73.99469482 14.88589966 73.99018311 16.07377075 73.98553467 17.29763794 C73.97370329 20.24365082 73.95721941 23.18956537 73.93670654 26.13552856 C73.27715973 26.14583603 72.61761292 26.15614349 71.93807983 26.16676331 C65.09279165 26.27468236 58.247639 26.38929195 51.40252686 26.50784302 C48.84558947 26.55123879 46.28862223 26.59291036 43.73162842 26.63284302 C40.06291695 26.69043326 36.39435643 26.75415994 32.72576904 26.81912231 C31.57678131 26.83583481 30.42779358 26.8525473 29.24398804 26.86976624 C28.18303925 26.88971146 27.12209045 26.90965668 26.0289917 26.9302063 C24.62334457 26.95352272 24.62334457 26.95352272 23.18930054 26.97731018 C20.90156863 26.99332841 20.90156863 26.99332841 18.93670654 28.13552856 C18.93670654 36.05552856 18.93670654 43.97552856 18.93670654 52.13552856 C35.43670654 52.13552856 51.93670654 52.13552856 68.93670654 52.13552856 C68.93670654 60.05552856 68.93670654 67.97552856 68.93670654 76.13552856 C52.43670654 76.13552856 35.93670654 76.13552856 18.93670654 76.13552856 C19.10170654 80.28115356 19.26670654 84.42677856 19.43670654 88.69802856 C19.79119796 98.2400371 20.04330934 107.77411378 20.06170654 117.32302856 C20.06621826 118.30150757 20.07072998 119.27998657 20.07537842 120.28811646 C20.07344482 121.18006714 20.07151123 122.07201782 20.06951904 122.99099731 C20.06839111 123.77112183 20.06726318 124.55124634 20.06610107 125.35501099 C19.93670654 127.13552856 19.93670654 127.13552856 18.93670654 128.13552856 C17.4710099 128.2101662 16.0018117 128.21879231 14.53436279 128.19802856 C13.19921631 128.186427 13.19921631 128.186427 11.83709717 128.17459106 C9.94907559 128.14860316 8.06105476 128.12256171 6.17303467 128.09646606 C5.28164795 128.08873169 4.39026123 128.08099731 3.47186279 128.07302856 C2.65081055 128.061427 1.8297583 128.04982544 0.98382568 128.03787231 C-1.13003459 128.00052992 -1.13003459 128.00052992 -3.06329346 129.13552856 C-5.19402318 127.43144281 -5.99611309 126.55430704 -6.43523026 123.81700706 C-6.43376369 122.89927828 -6.43229713 121.98154949 -6.43078613 121.03601074 C-6.43635529 119.98156265 -6.44192444 118.92711456 -6.44766235 117.8407135 C-6.43384018 116.10598534 -6.43384018 116.10598534 -6.41973877 114.33621216 C-6.42178314 113.11818405 -6.42382751 111.90015594 -6.42593384 110.6452179 C-6.4284288 107.30431526 -6.41753044 103.96396762 -6.40040684 100.62314177 C-6.38538201 97.13090987 -6.38654518 93.63868215 -6.38574219 90.14642334 C-6.38204939 84.28368873 -6.36707948 78.42107118 -6.34454346 72.55838013 C-6.31564233 65.02428915 -6.30531787 57.49029235 -6.30086136 49.95615196 C-6.2968868 43.48779788 -6.28438594 37.01946441 -6.27051449 30.55112505 C-6.26640986 28.46710157 -6.26348716 26.38307883 -6.2607193 24.29905319 C-6.25493263 20.42469088 -6.24026434 16.55039079 -6.22442627 12.67605591 C-6.22330841 11.515522 -6.22219055 10.3549881 -6.22103882 9.1592865 C-6.21532867 8.11047806 -6.20961853 7.06166962 -6.20373535 5.9810791 C-6.20076069 5.06410437 -6.19778603 4.14712963 -6.19472122 3.20236778 C-5.93519128 -0.87901225 -3.51680779 0.01511166 0 0 Z " fill="#000000" transform="translate(702.0632934570313,59.864471435546875)"/>
<path d="M0 0 C4.56859919 3.58581913 8.0467553 7.29556228 11.0625 12.25 C11.62710938 13.13558594 11.62710938 13.13558594 12.203125 14.0390625 C19.80431407 27.36950602 19.5950722 44.43810396 16.09375 58.9296875 C12.3935418 70.84323661 5.11530257 79.86579483 -5.9375 85.6875 C-18.8088983 91.53224816 -32.48946181 92.23379223 -45.9375 87.50390625 C-56.65683934 83.02355738 -65.33725869 76.15945048 -70.1328125 65.31640625 C-70.39835937 64.63449219 -70.66390625 63.95257813 -70.9375 63.25 C-71.22367187 62.53714844 -71.50984375 61.82429688 -71.8046875 61.08984375 C-76.82661908 46.76538176 -76.11995363 29.49660089 -69.625 15.75 C-68.76421368 14.22961706 -67.86946141 12.72782452 -66.9375 11.25 C-66.50695312 10.54488281 -66.07640625 9.83976562 -65.6328125 9.11328125 C-59.89141012 0.59848958 -51.49425028 -4.41634083 -41.69140625 -7.08984375 C-27.05348285 -9.66404672 -12.51405483 -8.53307363 0 0 Z M-41.75 18.875 C-48.04749185 25.71227686 -49.19825357 34.45251058 -49.08984375 43.40234375 C-48.68179855 51.0296501 -47.07208512 57.14875831 -41.484375 62.69140625 C-36.68928677 66.94159809 -32.59873328 67.63846184 -26.375 67.515625 C-21.00449074 66.9303772 -16.67251485 65.23235449 -13.07421875 61.12109375 C-7.08560966 52.44547151 -7.08300254 43.50874322 -7.9375 33.25 C-9.23207285 26.55877409 -11.52973898 21.45773728 -17.0703125 17.33203125 C-25.52987335 12.42973344 -33.73742865 14.24551433 -41.75 18.875 Z " fill="#000000" transform="translate(529.9375,99.75)"/>
<path d="M0 0 C9.24 0 18.48 0 28 0 C30.00720659 6.02161976 31.85229671 11.92731196 33.41015625 18.05859375 C33.72961464 19.30238548 33.72961464 19.30238548 34.05552673 20.57130432 C34.50156679 22.31121148 34.94601204 24.05152822 35.38891602 25.79223633 C36.06018348 28.42840269 36.73772332 31.06289911 37.41601562 33.69726562 C39.4836452 41.76488436 41.49969883 49.80343937 43 58 C43.66 58 44.32 58 45 58 C46.81769996 51.3296501 48.6321237 44.65841515 50.44433594 37.98657227 C51.06045404 35.71976839 51.67730557 33.45316371 52.29492188 31.18676758 C53.1855525 27.91800953 54.07349161 24.64853018 54.9609375 21.37890625 C55.23497406 20.37541641 55.50901062 19.37192657 55.79135132 18.33802795 C57.00464437 13.85874581 58.15680023 9.38994697 59.12744141 4.85131836 C60 1 60 1 61 0 C62.99964982 -0.08758003 65.0023611 -0.10696576 67.00390625 -0.09765625 C68.21884766 -0.09443359 69.43378906 -0.09121094 70.68554688 -0.08789062 C71.96494141 -0.07951172 73.24433594 -0.07113281 74.5625 -0.0625 C75.84576172 -0.05798828 77.12902344 -0.05347656 78.45117188 -0.04882812 C81.63416022 -0.03699545 84.81705762 -0.02051068 88 0 C85.68356911 9.27093193 82.64138297 18.27844364 79.58956909 27.32559204 C78.02697001 31.95830527 76.47386168 36.59419117 74.921875 41.23046875 C74.60041 42.19051315 74.27894501 43.15055756 73.94773865 44.13969421 C71.64352048 51.03629119 69.38039412 57.94550336 67.140625 64.86328125 C66.82821365 65.82765106 66.51580231 66.79202087 66.19392395 67.78561401 C64.69342322 72.421201 63.19786971 77.05832758 61.70776367 81.69726562 C50.11916696 117.64375833 50.11916696 117.64375833 36 126 C30.82067728 128.17422843 26.1485723 128.33421216 20.625 128.3125 C19.81289063 128.32861328 19.00078125 128.34472656 18.1640625 128.36132812 C16.9575 128.36229492 16.9575 128.36229492 15.7265625 128.36328125 C15.01064941 128.36626221 14.29473633 128.36924316 13.55712891 128.37231445 C11 128 11 128 3 125 C3.33 118.4 3.66 111.8 4 105 C12.125 105.125 12.125 105.125 14.64892578 105.18017578 C19.13886945 105.21338701 22.82345066 104.86268944 27 103 C29.65401348 98.77770583 29.61749182 93.8485116 28.57531738 89.04092407 C27.95904388 86.87957602 27.28229828 84.74761349 26.578125 82.61328125 C26.32197922 81.81026581 26.06583344 81.00725037 25.80192566 80.17990112 C24.9612751 77.5541004 24.1059605 74.93334588 23.25 72.3125 C22.66085875 70.48435017 22.07240691 68.65597803 21.48461914 66.82739258 C16.61417782 51.71918095 11.61569145 36.65213948 6.55859375 21.60546875 C6.3387381 20.95075089 6.11888245 20.29603302 5.8923645 19.62147522 C4.85886419 16.54586939 3.82018975 13.47216991 2.77392578 10.40087891 C2.40638184 9.31597168 2.03883789 8.23106445 1.66015625 7.11328125 C1.33797119 6.16880127 1.01578613 5.22432129 0.68383789 4.2512207 C0 2 0 2 0 0 Z M44 59 C45 62 45 62 45 62 Z " fill="#010101" transform="translate(778,94)"/>
<path d="M0 0 C0 42.24 0 84.48 0 128 C-8.25 128 -16.5 128 -25 128 C-25 86.09 -25 44.18 -25 1 C-16.82195978 -0.63560804 -8.33999734 0 0 0 Z " fill="#000000" transform="translate(446,60)"/>
<path d="M0 0 C8.25 0 16.5 0 25 0 C25 31.02 25 62.04 25 94 C16.75 94 8.5 94 0 94 C-1 93 -1 93 -1.09765625 89.03442383 C-1.09068503 87.25860132 -1.07857688 85.48279467 -1.0625 83.70703125 C-1.05871338 82.76824631 -1.05492676 81.82946136 -1.05102539 80.86222839 C-1.03463593 76.83119455 -1.00665639 72.80026051 -0.97949219 68.76928711 C-0.96135853 65.83187329 -0.94928822 62.89447631 -0.9375 59.95703125 C-0.92920166 59.05056351 -0.92090332 58.14409576 -0.91235352 57.2101593 C-0.89482671 52.66181888 -1.21446464 48.49105296 -2 44 C-1.87890625 41.59228516 -1.87890625 41.59228516 -1.5625 39.1640625 C-1.06087497 34.41952576 -0.91543195 29.72805013 -0.9375 24.9609375 C-0.94072266 24.26236633 -0.94394531 23.56379517 -0.94726562 22.84405518 C-0.96106147 20.68765418 -0.97969813 18.53134904 -1 16.375 C-1.02653614 13.48698361 -1.04648274 10.59902902 -1.0625 7.7109375 C-1.07410156 6.44556152 -1.08570313 5.18018555 -1.09765625 3.87646484 C-1 1 -1 1 0 0 Z " fill="#000000" transform="translate(657,94)"/>
<path d="M0 0 C4.88941489 4.30734169 7.33629007 7.39997657 7.78515625 13.96875 C7.40875322 19.47708698 4.92466486 23.16052433 0.875 26.75 C-4.78546833 29.471379 -9.17856936 29.89624444 -15.125 28.1875 C-19.04841935 26.71706477 -21.203819 24.99406779 -23.375 21.3125 C-23.375 20.6525 -23.375 19.9925 -23.375 19.3125 C-24.035 18.9825 -24.695 18.6525 -25.375 18.3125 C-25.22173847 11.38786525 -24.460486 6.28743196 -19.375 1.3125 C-13.51722495 -2.91054713 -6.37017465 -3.18508733 0 0 Z " fill="#020101" transform="translate(678.375,55.6875)"/>
<path d="" fill="#000000" transform="translate(0,0)"/>
<path d="" fill="#000000" transform="translate(0,0)"/>
<path d="" fill="#191900" transform="translate(0,0)"/>
<path d="" fill="#000000" transform="translate(0,0)"/>
<path d="M0 0 C2 1 2 1 2 1 Z " fill="#000000" transform="translate(602,116)"/>
<path d="M0 0 C2 1 2 1 2 1 Z " fill="#000000" transform="translate(737,87)"/>
<path d="M0 0 C2 1 2 1 2 1 Z " fill="#0000FF" transform="translate(46,0)"/>
<path d="" fill="#7F7FFF" transform="translate(0,0)"/>
<path d="" fill="#0000FF" transform="translate(0,0)"/>
<path d="" fill="#000000" transform="translate(0,0)"/>
<path d="" fill="#000000" transform="translate(0,0)"/>
<path d="" fill="#000000" transform="translate(0,0)"/>
<path d="" fill="#000000" transform="translate(0,0)"/>
<path d="" fill="#000000" transform="translate(0,0)"/>
<path d="" fill="#000000" transform="translate(0,0)"/>
<path d="" fill="#000000" transform="translate(0,0)"/>
<path d="" fill="#000000" transform="translate(0,0)"/>
<path d="" fill="#000000" transform="translate(0,0)"/>
<path d="" fill="#000000" transform="translate(0,0)"/>
<path d="" fill="#000000" transform="translate(0,0)"/>
<path d="" fill="#000000" transform="translate(0,0)"/>
<path d="" fill="#3F3F3F" transform="translate(0,0)"/>
<path d="" fill="#000000" transform="translate(0,0)"/>
<path d="" fill="#000000" transform="translate(0,0)"/>
<path d="" fill="#000000" transform="translate(0,0)"/>
<path d="" fill="#000000" transform="translate(0,0)"/>
<path d="" fill="#000000" transform="translate(0,0)"/>
<path d="" fill="#000000" transform="translate(0,0)"/>
<path d="" fill="#000000" transform="translate(0,0)"/>
<path d="" fill="#000000" transform="translate(0,0)"/>
<path d="" fill="#000000" transform="translate(0,0)"/>
<path d="" fill="#000000" transform="translate(0,0)"/>
<path d="" fill="#000000" transform="translate(0,0)"/>
<path d="" fill="#000000" transform="translate(0,0)"/>
<path d="" fill="#000000" transform="translate(0,0)"/>
<path d="" fill="#000000" transform="translate(0,0)"/>
<path d="" fill="#000000" transform="translate(0,0)"/>
<path d="" fill="#000000" transform="translate(0,0)"/>
<path d="" fill="#000000" transform="translate(0,0)"/>
<path d="" fill="#000000" transform="translate(0,0)"/>
<path d="" fill="#000000" transform="translate(0,0)"/>
<path d="" fill="#000000" transform="translate(0,0)"/>
<path d="" fill="#000000" transform="translate(0,0)"/>
<path d="" fill="#000000" transform="translate(0,0)"/>
<path d="" fill="#000000" transform="translate(0,0)"/>
<path d="" fill="#000000" transform="translate(0,0)"/>
<path d="" fill="#000000" transform="translate(0,0)"/>
<path d="" fill="#000000" transform="translate(0,0)"/>
<path d="" fill="#000000" transform="translate(0,0)"/>
<path d="" fill="#000000" transform="translate(0,0)"/>
<path d="" fill="#000000" transform="translate(0,0)"/>
<path d="" fill="#000000" transform="translate(0,0)"/>
<path d="" fill="#000000" transform="translate(0,0)"/>
<path d="" fill="#0000FF" transform="translate(0,0)"/>
<path d="" fill="#000000" transform="translate(0,0)"/>
<path d="" fill="#000000" transform="translate(0,0)"/>
<path d="" fill="#000000" transform="translate(0,0)"/>
<path d="" fill="#000000" transform="translate(0,0)"/>
<path d="" fill="#000000" transform="translate(0,0)"/>
<path d="" fill="#000000" transform="translate(0,0)"/>
<path d="" fill="#000000" transform="translate(0,0)"/>
<path d="" fill="#000000" transform="translate(0,0)"/>
<path d="" fill="#000000" transform="translate(0,0)"/>
<path d="" fill="#000000" transform="translate(0,0)"/>
<path d="" fill="#000000" transform="translate(0,0)"/>
<path d="" fill="#000000" transform="translate(0,0)"/>
<path d="" fill="#000000" transform="translate(0,0)"/>
<path d="" fill="#000000" transform="translate(0,0)"/>
<path d="" fill="#000000" transform="translate(0,0)"/>
<path d="" fill="#000000" transform="translate(0,0)"/>
<path d="" fill="#000000" transform="translate(0,0)"/>
<path d="" fill="#000000" transform="translate(0,0)"/>
<path d="" fill="#000000" transform="translate(0,0)"/>
<path d="" fill="#000000" transform="translate(0,0)"/>
<path d="" fill="#000000" transform="translate(0,0)"/>
<path d="" fill="#000000" transform="translate(0,0)"/>
<path d="" fill="#000000" transform="translate(0,0)"/>
<path d="" fill="#000000" transform="translate(0,0)"/>
<path d="" fill="#000000" transform="translate(0,0)"/>
<path d="" fill="#000000" transform="translate(0,0)"/>
<path d="" fill="#000000" transform="translate(0,0)"/>
<path d="" fill="#0000FF" transform="translate(0,0)"/>
<path d="" fill="#000000" transform="translate(0,0)"/>
<path d="" fill="#000000" transform="translate(0,0)"/>
<path d="" fill="#000000" transform="translate(0,0)"/>
<path d="" fill="#000000" transform="translate(0,0)"/>
</svg>
